<svg width="387" height="180" viewBox="0 0 387 180" fill="none" xmlns="http://www.w3.org/2000/svg">
<path d="M277.724 85.9762C283.292 85.9762 288.212 83.6242 292.484 78.9202V84.6802H298.316V45.4402H292.484V51.4162C288.596 46.7602 283.784 44.4322 278.048 44.4322C272.312 44.4322 267.452 46.4602 263.468 50.5162C259.484 54.5722 257.492 59.4442 257.492 65.1322C257.492 70.8202 259.472 75.7162 263.432 79.8202C267.392 83.9242 272.156 85.9762 277.724 85.9762ZM278.156 80.4322C274.124 80.4322 270.668 78.9322 267.788 75.9322C264.908 72.9322 263.468 69.3922 263.468 65.3122C263.468 61.2322 264.884 57.6922 267.716 54.6922C270.548 51.6922 274.016 50.1922 278.12 50.1922C282.224 50.1922 285.692 51.6442 288.524 54.5482C291.356 57.4522 292.772 61.0522 292.772 65.3482C292.772 69.6442 291.332 73.2322 288.452 76.1122C285.572 78.9922 282.14 80.4322 278.156 80.4322ZM312.212 84.6802V68.1202L330.644 84.6802H339.212L316.388 64.1602L337.988 45.4402L329.132 45.5122L312.212 60.2722V30.6802H306.236V84.6802H312.212ZM363.044 85.9762C368.612 85.9762 373.532 83.6242 377.804 78.9202V84.6802H383.636V45.4402H377.804V51.4162C373.916 46.7602 369.104 44.4322 363.368 44.4322C357.632 44.4322 352.772 46.4602 348.788 50.5162C344.804 54.5722 342.812 59.4442 342.812 65.1322C342.812 70.8202 344.792 75.7162 348.752 79.8202C352.712 83.9242 357.476 85.9762 363.044 85.9762ZM363.476 80.4322C359.444 80.4322 355.988 78.9322 353.108 75.9322C350.228 72.9322 348.788 69.3922 348.788 65.3122C348.788 61.2322 350.204 57.6922 353.036 54.6922C355.868 51.6922 359.336 50.1922 363.44 50.1922C367.544 50.1922 371.012 51.6442 373.844 54.5482C376.676 57.4522 378.092 61.0522 378.092 65.3482C378.092 69.6442 376.652 73.2322 373.772 76.1122C370.892 78.9922 367.46 80.4322 363.476 80.4322Z" fill="#999999"/>
<path d="M8.62807 178.24V146.176H11.5081L36.2761 178.24H46.6441L21.7801 146.176C29.2681 146.176 34.9961 144.432 38.9641 140.944C42.9321 137.456 44.9161 132.8 44.9161 126.976C44.9161 123.904 44.3081 121.104 43.0921 118.576C41.8761 116.048 40.2121 113.984 38.1001 112.384C35.9881 110.784 33.4921 109.648 30.6121 108.976C27.7321 108.304 22.4521 107.968 14.7721 107.968H0.37207V178.24H8.62807ZM20.4005 138.116L19.8601 138.112H8.62807V116.032H20.1481C25.7161 116.032 29.8121 116.912 32.4361 118.672C35.0601 120.432 36.3721 123.248 36.3721 127.12C36.3721 130.992 35.0281 133.808 32.3401 135.568C29.6521 137.328 25.4921 138.176 19.8601 138.112L20.4005 138.116ZM81.9721 179.968C87.6681 179.968 92.5641 178.64 96.6601 175.984C100.756 173.328 104.308 169.216 107.316 163.648L100.596 160.192C96.1801 168.448 89.7801 172.576 81.3961 172.576C76.4681 172.576 72.2281 170.832 68.6761 167.344C65.1241 163.856 63.1881 159.232 62.8681 153.472H108.756C108.564 144.512 105.908 137.456 100.788 132.304C95.6681 127.152 89.3001 124.576 81.6841 124.576C74.0681 124.576 67.6841 127.296 62.5321 132.736C57.3801 138.176 54.8041 144.704 54.8041 152.32C54.8041 159.936 57.3641 166.448 62.4841 171.856C67.6041 177.264 74.1001 179.968 81.9721 179.968ZM99.9241 146.464H63.8281C66.7721 136.992 72.7241 132.256 81.6841 132.256C86.1001 132.256 90.0041 133.504 93.3961 136C96.7881 138.496 98.9641 141.984 99.9241 146.464ZM130.548 179.968C135.092 179.968 138.916 178.432 142.02 175.36C145.124 172.288 146.676 168.512 146.676 164.032C146.676 160.512 145.636 157.536 143.556 155.104C141.476 152.672 138.516 150.448 134.676 148.432C130.836 146.416 128.164 144.72 126.66 143.344C125.156 141.968 124.404 140.368 124.404 138.544C124.404 136.72 125.076 135.184 126.42 133.936C127.764 132.688 129.428 132.064 131.412 132.064C134.548 132.064 138.004 133.824 141.78 137.344L146.868 132.064C141.748 127.072 136.9 124.576 132.324 124.576C127.748 124.576 124.068 125.92 121.284 128.608C118.5 131.296 117.108 134.544 117.108 138.352C117.108 142.16 118.084 145.232 120.036 147.568C121.988 149.904 124.868 152.032 128.676 153.952C132.484 155.872 135.172 157.552 136.74 158.992C138.308 160.432 139.092 162.224 139.092 164.368C139.092 166.512 138.228 168.384 136.5 169.984C134.772 171.584 132.692 172.384 130.26 172.384C126.676 172.384 123.156 170.368 119.7 166.336L114.708 171.904C118.932 177.28 124.212 179.968 130.548 179.968ZM159.876 118.432C161.572 118.432 163.012 117.84 164.196 116.656C165.38 115.472 165.972 114.032 165.972 112.336C165.972 110.64 165.38 109.2 164.196 108.016C163.012 106.832 161.556 106.24 159.828 106.24C158.164 106.24 156.74 106.848 155.556 108.064C154.372 109.28 153.78 110.704 153.78 112.336C153.78 113.968 154.372 115.392 155.556 116.608C156.74 117.824 158.18 118.432 159.876 118.432ZM163.86 178.24V125.92H155.892V178.24H163.86ZM200.772 179.968C208.228 179.968 214.804 176.832 220.5 170.56V178.24H228.276V106.24H220.5V133.888C215.316 127.68 208.9 124.576 201.252 124.576C193.604 124.576 187.124 127.28 181.812 132.688C176.5 138.096 173.844 144.608 173.844 152.224C173.844 159.84 176.468 166.368 181.716 171.808C186.964 177.248 193.316 179.968 200.772 179.968ZM201.396 172.576C196.02 172.576 191.412 170.56 187.572 166.528C183.732 162.496 181.812 157.776 181.812 152.368C181.812 146.96 183.684 142.256 187.428 138.256C191.172 134.256 195.844 132.256 201.444 132.256C207.044 132.256 211.684 134.192 215.364 138.064C219.044 141.936 220.884 146.768 220.884 152.56C220.884 158.352 218.9 163.136 214.932 166.912C210.964 170.688 206.452 172.576 201.396 172.576ZM266.58 179.968C272.276 179.968 277.172 178.64 281.268 175.984C285.364 173.328 288.916 169.216 291.924 163.648L285.204 160.192C280.788 168.448 274.388 172.576 266.004 172.576C261.076 172.576 256.836 170.832 253.284 167.344C249.732 163.856 247.796 159.232 247.476 153.472H293.364C293.172 144.512 290.516 137.456 285.396 132.304C280.276 127.152 273.908 124.576 266.292 124.576C258.676 124.576 252.292 127.296 247.14 132.736C241.988 138.176 239.412 144.704 239.412 152.32C239.412 159.936 241.972 166.448 247.092 171.856C252.212 177.264 258.708 179.968 266.58 179.968ZM284.532 146.464H248.436C251.38 136.992 257.332 132.256 266.292 132.256C270.708 132.256 274.612 133.504 278.004 136C281.396 138.496 283.572 141.984 284.532 146.464ZM312.18 178.24V158.848C312.18 151.936 312.484 147.328 313.092 145.024C313.7 142.72 314.804 140.544 316.404 138.496C318.004 136.448 319.924 134.848 322.164 133.696C324.404 132.544 326.692 131.968 329.028 131.968C331.364 131.968 333.348 132.32 334.98 133.024C336.612 133.728 337.956 134.8 339.012 136.24C340.068 137.68 340.868 139.44 341.412 141.52C341.956 143.6 342.228 147.52 342.228 153.28V178.24H350.1V151.36C350.1 144.256 349.332 138.992 347.796 135.568C346.26 132.144 343.956 129.456 340.884 127.504C337.812 125.552 334.388 124.576 330.612 124.576C323.508 124.576 317.364 127.648 312.18 133.792V125.92H304.212V178.24H312.18ZM377.556 179.968C379.156 179.968 381.492 179.712 384.564 179.2V172.384H379.956C378.42 172.384 377.46 172.24 377.076 171.952C376.692 171.664 376.5 170.848 376.5 169.504V132.832H386.868V125.92H376.5V106.24H368.532V125.92H359.508V132.832H368.532V170.56C368.532 173.824 369.268 176.208 370.74 177.712C372.212 179.216 374.484 179.968 377.556 179.968Z" fill="#CE7F0D"/>
<path d="M96.9759 1.09067C98.7367 -0.313412 101.209 -0.361829 103.019 0.945424L103.21 1.09067L198.303 76.9163C201.945 79.8201 199.979 85.643 195.402 85.8215L195.186 85.8259H100.093C97.3317 85.8259 95.0931 83.5871 95.0931 80.8257C95.0931 78.1369 97.2154 75.9439 99.8762 75.8303L100.093 75.8257L180.895 75.825L100.093 11.395L8.11743 84.735C6.02187 86.406 2.99667 86.121 1.2464 84.1287L1.09086 83.9429C-0.580104 81.8474 -0.295174 78.8221 1.69714 77.0719L1.88295 76.9163L96.9759 1.09067Z" fill="url(#paint0_linear)"/>
<path d="M167.319 20.0677C169.08 18.6447 171.567 18.5877 173.387 19.9012L173.579 20.0472L245.117 77.0908C247.276 78.8124 247.631 81.9583 245.909 84.1174C244.238 86.2129 241.226 86.6086 239.076 85.056L238.883 84.9094L170.483 30.3681L114.234 75.8251L195.186 75.8258C197.875 75.8258 200.068 77.9481 200.181 80.6089L200.186 80.8258C200.186 83.5145 198.064 85.7076 195.403 85.8212L195.186 85.8258H100.093C95.4514 85.8258 93.3488 80.0809 96.785 77.0758L96.9501 76.937L167.319 20.0677Z" fill="url(#paint1_linear)"/>
<defs>
<linearGradient id="paint0_linear" x1="117.381" y1="35.0259" x2="104.971" y2="64.0779" gradientUnits="userSpaceOnUse">
<stop stop-color="#F1B654"/>
<stop offset="1" stop-color="#CE7F0D"/>
</linearGradient>
<linearGradient id="paint1_linear" x1="175.468" y1="45.9497" x2="146.62" y2="68.97" gradientUnits="userSpaceOnUse">
<stop stop-color="#F1B654"/>
<stop offset="1" stop-color="#CE7F0D"/>
</linearGradient>
</defs>
</svg>
